<?xml version="1.0" encoding="UTF-8" standalone="no"?>
<svg
   xmlns:dc="http://purl.org/dc/elements/1.1/"
   xmlns:cc="http://creativecommons.org/ns#"
   xmlns:rdf="http://www.w3.org/1999/02/22-rdf-syntax-ns#"
   xmlns:svg="http://www.w3.org/2000/svg"
   xmlns="http://www.w3.org/2000/svg"
   xmlns:sodipodi="http://sodipodi.sourceforge.net/DTD/sodipodi-0.dtd"
   xmlns:inkscape="http://www.inkscape.org/namespaces/inkscape"
   width="241.06641mm"
   height="241.06641mm"
   viewBox="0 0 241.0664 241.06641"
   version="1.1"
   id="svg8"
   inkscape:version="1.0 (4035a4fb49, 2020-05-01)"
   sodipodi:docname="logo.svg"
   inkscape:export-filename="/home/matthew/Repositories/formulaic/logo_with_text.png"
   inkscape:export-xdpi="26.969999"
   inkscape:export-ydpi="26.969999">
  <defs
     id="defs2">
    <filter
       style="color-interpolation-filters:sRGB"
       inkscape:label="Drop Shadow"
       id="filter1552">
      <feFlood
         flood-opacity="1"
         flood-color="rgb(255,255,255)"
         result="flood"
         id="feFlood1542" />
      <feComposite
         in="SourceGraphic"
         in2="flood"
         operator="in"
         result="composite1"
         id="feComposite1544" />
      <feGaussianBlur
         in="composite1"
         stdDeviation="4.8877717813027868"
         result="blur"
         id="feGaussianBlur1546" />
      <feOffset
         dx="0"
         dy="0"
         result="offset"
         id="feOffset1548" />
      <feComposite
         in="SourceGraphic"
         in2="offset"
         operator="over"
         result="composite2"
         id="feComposite1550" />
    </filter>
    <filter
       id="filter1182"
       inkscape:label="Colorize"
       style="color-interpolation-filters:sRGB;">
      <feComposite
         id="feComposite1168"
         result="composite1"
         k2="1"
         k1="0"
         operator="arithmetic"
         in2="SourceGraphic" />
      <feColorMatrix
         id="feColorMatrix1170"
         result="colormatrix1"
         type="saturate"
         values="1"
         in="composite1" />
      <feFlood
         id="feFlood1172"
         result="flood1"
         flood-color="rgb(26,101,227)"
         flood-opacity="1" />
      <feBlend
         id="feBlend1174"
         result="blend1"
         mode="multiply"
         in2="colormatrix1"
         in="flood1" />
      <feBlend
         id="feBlend1176"
         result="blend2"
         mode="screen"
         in2="blend1" />
      <feColorMatrix
         id="feColorMatrix1178"
         result="colormatrix2"
         type="saturate"
         values="1"
         in="blend2" />
      <feComposite
         id="feComposite1180"
         result="composite2"
         k2="1"
         operator="in"
         in2="SourceGraphic"
         in="colormatrix2" />
    </filter>
  </defs>
  <sodipodi:namedview
     id="base"
     pagecolor="#ffffff"
     bordercolor="#666666"
     borderopacity="1.0"
     inkscape:pageopacity="0.0"
     inkscape:pageshadow="2"
     inkscape:zoom="0.12374369"
     inkscape:cx="1199.0356"
     inkscape:cy="2253.2399"
     inkscape:document-units="mm"
     inkscape:current-layer="layer1"
     inkscape:document-rotation="0"
     showgrid="false"
     inkscape:window-width="1920"
     inkscape:window-height="1016"
     inkscape:window-x="0"
     inkscape:window-y="27"
     inkscape:window-maximized="1"
     fit-margin-top="2"
     fit-margin-left="2"
     fit-margin-right="2"
     fit-margin-bottom="2" />
  <metadata
     id="metadata5">
    <rdf:RDF>
      <cc:Work
         rdf:about="">
        <dc:format>image/svg+xml</dc:format>
        <dc:type
           rdf:resource="http://purl.org/dc/dcmitype/StillImage" />
        <dc:title />
      </cc:Work>
    </rdf:RDF>
  </metadata>
  <g
     inkscape:label="Layer 1"
     inkscape:groupmode="layer"
     id="layer1"
     transform="translate(230.0038,-165.35487)">
    <g
       style="filter:url(#filter1182)"
       id="g981"
       transform="translate(-246.16982,72.470094)">
      <path
         style="fill:#bbbbbb;fill-opacity:1;stroke-width:0.264583"
         d="m 71.082031,134.04297 c 0,4.23372 0,8.46745 0,12.70117 8.466797,0 16.933594,0 25.400391,0 0,-8.4668 0,-16.93359 0,-25.40039 -8.466797,0 -16.933594,0 -25.400391,0 0,4.23307 0,8.46615 0,12.69922 z"
         id="path1049" />
      <path
         style="fill:#b1b1b1;fill-opacity:1;stroke-width:0.264583"
         d="m 71.082031,319.25195 c 0,4.23308 0,8.46615 0,12.69922 8.466797,0 16.933594,0 25.400391,0 0,-8.46614 0,-16.93229 0,-25.39844 -8.466797,0 -16.933594,0 -25.400391,0 0,4.23308 0,8.46615 0,12.69922 z"
         id="path1047" />
      <path
         style="fill:#adadad;fill-opacity:1;stroke-width:0.264583"
         d="m 150.45703,134.04297 c 0,4.23372 0,8.46745 0,12.70117 8.4668,0 16.9336,0 25.40039,0 0,-8.4668 0,-16.93359 0,-25.40039 -8.46679,0 -16.93359,0 -25.40039,0 0,4.23307 0,8.46615 0,12.69922 z"
         id="path1045" />
      <path
         style="fill:#a8a8a8;fill-opacity:1;stroke-width:0.264583"
         d="m 203.37305,266.33594 v 12.69922 h 25.40039 v -25.40039 h -25.40039 z"
         id="path1043" />
      <path
         style="fill:#a5a5a5;fill-opacity:1;stroke-width:0.264583"
         d="m 18.166016,186.96094 c 0,4.23307 0,8.46614 0,12.69922 8.466145,0 16.932291,0 25.398437,0 0,-8.4668 0,-16.9336 0,-25.40039 -8.466146,0 -16.932292,0 -25.398437,0 0,4.23372 0,8.46744 0,12.70117 z"
         id="path1146" />
      <path
         style="fill:#a5a5a5;fill-opacity:1;stroke-width:0.264583"
         d="m 71.082031,160.50195 c 0,4.23308 0,8.46615 0,12.69922 8.466797,0 16.933594,0 25.400391,0 0,-8.46614 0,-16.93229 0,-25.39844 -8.466797,0 -16.933594,0 -25.400391,0 0,4.23308 0,8.46615 0,12.69922 z"
         id="path1041" />
      <path
         style="fill:#a3a3a3;fill-opacity:1;stroke-width:0.264583"
         d="m 203.37305,239.87695 v 12.69922 h 25.40039 v -25.39844 h -25.40039 z"
         id="path1150" />
      <path
         style="fill:#a3a3a3;fill-opacity:1;stroke-width:0.264583"
         d="m 18.166016,160.50195 v 12.69922 H 43.564453 V 147.80273 H 18.166016 Z"
         id="path1039" />
      <path
         style="fill:#a1a1a1;fill-opacity:1;stroke-width:0.264583"
         d="m 176.91602,239.87695 c 0,4.23308 0,8.46615 0,12.69922 8.46614,0 16.93229,0 25.39843,0 0,-8.46614 0,-16.93229 0,-25.39844 -8.46614,0 -16.93229,0 -25.39843,0 0,4.23308 0,8.46615 0,12.69922 z"
         id="path1156" />
      <path
         style="fill:#a1a1a1;fill-opacity:1;stroke-width:0.264583"
         d="m 44.623047,213.41797 c 0,4.23372 0,8.46745 0,12.70117 8.466797,0 16.933594,0 25.400391,0 -10e-7,-8.4668 -10e-7,-16.93359 0,-25.40039 -8.466797,0 -16.933594,0 -25.400391,0 0,4.23307 0,8.46615 0,12.69922 z"
         id="path1154" />
      <path
         style="fill:#a1a1a1;fill-opacity:1;stroke-width:0.264583"
         d="m 97.541016,186.96094 c 0,4.23307 0,8.46614 0,12.69922 8.466144,0 16.932294,0 25.398434,0 0,-8.4668 0,-16.9336 0,-25.40039 -8.46614,0 -16.93229,0 -25.398434,0 0,4.23372 0,8.46744 0,12.70117 z"
         id="path1037" />
      <path
         style="fill:#9e9e9e;fill-opacity:1;stroke-width:0.264583"
         d="m 97.541016,239.87695 c 0,4.23308 0,8.46615 0,12.69922 8.466144,0 16.932294,0 25.398434,0 0,-8.46614 0,-16.93229 0,-25.39844 -8.46614,0 -16.93229,0 -25.398434,0 0,4.23308 0,8.46615 0,12.69922 z"
         id="path1160" />
      <path
         style="fill:#9e9e9e;fill-opacity:1;stroke-width:0.264583"
         d="m 150.45703,107.58594 c 0,4.23307 0,8.46614 0,12.69922 8.4668,0 16.9336,0 25.40039,0 0,-8.4668 0,-16.9336 0,-25.400394 -8.46679,0 -16.93359,0 -25.40039,0 0,4.233724 0,8.467444 0,12.701174 z"
         id="path1035" />
      <path
         style="fill:#9c9c9c;fill-opacity:1;stroke-width:0.264583"
         d="m 123.99805,239.87695 c 0,4.23308 0,8.46615 0,12.69922 8.46679,0 16.93359,0 25.40039,0 0,-8.46614 0,-16.93229 0,-25.39844 -8.4668,0 -16.9336,0 -25.40039,0 0,4.23308 0,8.46615 0,12.69922 z"
         id="path1164" />
      <path
         style="fill:#9c9c9c;fill-opacity:1;stroke-width:0.264583"
         d="m 97.541016,160.50195 c 0,4.23308 0,8.46615 0,12.69922 8.466144,0 16.932294,0 25.398434,0 0,-8.46614 0,-16.93229 0,-25.39844 -8.46614,0 -16.93229,0 -25.398434,0 0,4.23308 0,8.46615 0,12.69922 z"
         id="path1033" />
      <path
         style="fill:#999999;fill-opacity:1;stroke-width:0.264583"
         d="m 97.541016,319.25195 v 12.69922 H 122.93945 V 306.55273 H 97.541016 Z"
         id="path1168" />
      <path
         style="fill:#999999;fill-opacity:1;stroke-width:0.264583"
         d="m 229.83203,292.79297 v 12.70117 h 25.40039 v -25.40039 h -25.40039 z"
         id="path1031" />
      <path
         style="fill:#979797;fill-opacity:1;stroke-width:0.264583"
         d="m 150.45703,292.79297 c 0,4.23372 0,8.46745 0,12.70117 8.4668,0 16.9336,0 25.40039,0 0,-8.4668 0,-16.93359 0,-25.40039 -8.46679,0 -16.93359,0 -25.40039,0 0,4.23307 0,8.46615 0,12.69922 z"
         id="path1176" />
      <path
         style="fill:#979797;fill-opacity:1;stroke-width:0.264583"
         d="m 150.45703,213.41797 c 0,4.23372 0,8.46745 0,12.70117 8.4668,0 16.9336,0 25.40039,0 0,-8.4668 0,-16.93359 0,-25.40039 -8.46679,0 -16.93359,0 -25.40039,0 0,4.23307 0,8.46615 0,12.69922 z"
         id="path1174" />
      <path
         style="fill:#979797;fill-opacity:1;stroke-width:0.264583"
         d="m 229.83203,186.96094 c 0,4.23307 0,8.46614 0,12.69922 8.4668,0 16.93359,0 25.40039,0 0,-8.4668 0,-16.9336 0,-25.40039 -8.4668,0 -16.93359,0 -25.40039,0 0,4.23372 0,8.46744 0,12.70117 z"
         id="path1172" />
      <path
         style="fill:#979797;fill-opacity:1;stroke-width:0.264583"
         d="m 44.623047,160.50195 c 0,4.23308 0,8.46615 0,12.69922 8.466797,0 16.933594,0 25.400391,0 -10e-7,-8.46614 0,-16.93229 0,-25.39844 -8.466797,0 -16.933594,0 -25.400391,0 0,4.23308 0,8.46615 0,12.69922 z"
         id="path1029" />
      <path
         style="fill:#959595;fill-opacity:1;stroke-width:0.264583"
         d="m 203.37305,319.25195 c 0,4.23308 0,8.46615 0,12.69922 8.46679,0 16.93359,0 25.40039,0 0,-8.46614 0,-16.93229 0,-25.39844 -8.4668,0 -16.9336,0 -25.40039,0 0,4.23308 0,8.46615 0,12.69922 z"
         id="path1027" />
      <path
         style="fill:#929292;fill-opacity:1;stroke-width:0.264583"
         d="m 229.83203,319.25195 c 0,4.23308 0,8.46615 0,12.69922 8.4668,0 16.93359,0 25.40039,0 0,-8.46614 0,-16.93229 0,-25.39844 -8.4668,0 -16.93359,0 -25.40039,0 0,4.23308 0,8.46615 0,12.69922 z"
         id="path1186" />
      <path
         style="fill:#929292;fill-opacity:1;stroke-width:0.264583"
         d="m 44.623047,292.79297 c 0,4.23372 0,8.46745 0,12.70117 8.466797,0 16.933594,0 25.400391,0 0,-8.4668 -10e-7,-16.93359 0,-25.40039 -8.466797,0 -16.933594,0 -25.400391,0 0,4.23307 0,8.46615 0,12.69922 z"
         id="path1184" />
      <path
         style="fill:#929292;fill-opacity:1;stroke-width:0.264583"
         d="m 18.166016,213.41797 c 0,4.23372 0,8.46745 0,12.70117 8.466145,0 16.932291,0 25.398437,0 0,-8.4668 0,-16.93359 0,-25.40039 -8.466146,0 -16.932292,0 -25.398437,0 0,4.23307 0,8.46615 0,12.69922 z"
         id="path1182" />
      <path
         style="fill:#929292;fill-opacity:1;stroke-width:0.264583"
         d="m 203.37305,107.58594 c 0,4.23307 0,8.46614 0,12.69922 8.46679,0 16.93359,0 25.40039,0 0,-8.4668 0,-16.9336 0,-25.400394 -8.4668,0 -16.9336,0 -25.40039,0 0,4.233724 0,8.467444 0,12.701174 z"
         id="path1025" />
      <path
         style="fill:#909090;fill-opacity:1;stroke-width:0.264583"
         d="m 176.91602,186.96094 c 0,4.23307 0,8.46614 0,12.69922 8.46614,0 16.93229,0 25.39843,0 0,-8.4668 0,-16.9336 0,-25.40039 -8.46614,0 -16.93229,0 -25.39843,0 0,4.23372 0,8.46744 0,12.70117 z"
         id="path1192" />
      <path
         style="fill:#909090;fill-opacity:1;stroke-width:0.264583"
         d="m 203.37305,134.04297 c 0,4.23372 0,8.46745 0,12.70117 8.46679,0 16.93359,0 25.40039,0 0,-8.4668 0,-16.93359 0,-25.40039 -8.4668,0 -16.9336,0 -25.40039,0 0,4.23307 0,8.46615 0,12.69922 z"
         id="path1190" />
      <path
         style="fill:#909090;fill-opacity:1;stroke-width:0.264583"
         d="m 123.99805,107.58594 c 0,4.23307 0,8.46614 0,12.69922 8.46679,0 16.93359,0 25.40039,0 0,-8.4668 0,-16.9336 0,-25.400394 -8.4668,0 -16.9336,0 -25.40039,0 0,4.233724 0,8.467444 0,12.701174 z"
         id="path1023" />
      <path
         style="fill:#8d8d8d;fill-opacity:1;stroke-width:0.264583"
         d="m 97.541016,266.33594 c 0,4.23307 0,8.46614 0,12.69922 8.466144,0 16.932294,0 25.398434,0 0,-8.4668 0,-16.9336 0,-25.40039 -8.46614,0 -16.93229,0 -25.398434,0 0,4.23372 0,8.46744 0,12.70117 z"
         id="path1134" />
      <path
         style="fill:#8d8d8d;fill-opacity:1;stroke-width:0.264583"
         d="m 123.99805,213.41797 c 0,4.23372 0,8.46745 0,12.70117 8.46679,0 16.93359,0 25.40039,0 0,-8.4668 0,-16.93359 0,-25.40039 -8.4668,0 -16.9336,0 -25.40039,0 0,4.23307 0,8.46615 0,12.69922 z"
         id="path1132" />
      <path
         style="fill:#8d8d8d;fill-opacity:1;stroke-width:0.264583"
         d="m 71.082031,107.58594 c 0,4.23307 0,8.46614 0,12.69922 8.466797,0 16.933594,0 25.400391,0 0,-8.4668 0,-16.9336 0,-25.400394 -8.466797,0 -16.933594,0 -25.400391,0 0,4.233724 0,8.467444 0,12.701174 z"
         id="path1021" />
      <path
         style="fill:#8b8b8b;fill-opacity:1;stroke-width:0.264583"
         d="m 123.99805,319.25195 c 0,4.23308 0,8.46615 0,12.69922 8.46679,0 16.93359,0 25.40039,0 0,-8.46614 0,-16.93229 0,-25.39844 -8.4668,0 -16.9336,0 -25.40039,0 0,4.23308 0,8.46615 0,12.69922 z"
         id="path1208" />
      <path
         style="fill:#8b8b8b;fill-opacity:1;stroke-width:0.264583"
         d="m 176.91602,134.04297 c 0,4.23372 0,8.46745 0,12.70117 8.46614,0 16.93229,0 25.39843,0 0,-8.4668 0,-16.93359 0,-25.40039 -8.46614,0 -16.93229,0 -25.39843,0 0,4.23307 0,8.46615 0,12.69922 z"
         id="path1204" />
      <path
         style="fill:#8b8b8b;fill-opacity:1;stroke-width:0.264583"
         d="m 44.623047,134.04297 c 0,4.23372 0,8.46745 0,12.70117 8.466797,0 16.933594,0 25.400391,0 -10e-7,-8.4668 0,-16.93359 0,-25.40039 -8.466797,0 -16.933594,0 -25.400391,0 0,4.23307 0,8.46615 0,12.69922 z"
         id="path1202" />
      <path
         style="fill:#8b8b8b;fill-opacity:1;stroke-width:0.264583"
         d="m 97.541016,107.58594 c 0,4.23307 0,8.46614 0,12.69922 8.466144,0 16.932294,0 25.398434,0 0,-8.4668 0,-16.9336 0,-25.400394 -8.46614,0 -16.93229,0 -25.398434,0 0,4.233724 0,8.467444 0,12.701174 z"
         id="path1019" />
      <path
         style="fill:#898989;fill-opacity:1;stroke-width:0.264583"
         d="m 203.37305,186.96094 c 0,4.23307 0,8.46614 0,12.69922 8.46679,0 16.93359,0 25.40039,0 0,-8.4668 0,-16.9336 0,-25.40039 -8.4668,0 -16.9336,0 -25.40039,0 0,4.23372 0,8.46744 0,12.70117 z"
         id="path1017" />
      <path
         style="fill:#868686;fill-opacity:1;stroke-width:0.264583"
         d="m 44.623047,266.33594 c 0,4.23307 0,8.46614 0,12.69922 8.466797,0 16.933594,0 25.400391,0 -10e-7,-8.4668 0,-16.9336 0,-25.40039 -8.466797,0 -16.933594,0 -25.400391,0 0,4.23372 0,8.46744 0,12.70117 z"
         id="path1220" />
      <path
         style="fill:#868686;fill-opacity:1;stroke-width:0.264583"
         d="m 229.83203,213.41797 c 0,4.23372 0,8.46745 0,12.70117 8.4668,0 16.93359,0 25.40039,0 0,-8.4668 0,-16.93359 0,-25.40039 -8.4668,0 -16.93359,0 -25.40039,0 0,4.23307 0,8.46615 0,12.69922 z"
         id="path1218" />
      <path
         style="fill:#868686;fill-opacity:1;stroke-width:0.264583"
         d="m 71.082031,186.96094 c 0,4.23307 0,8.46614 0,12.69922 8.466797,0 16.933594,0 25.400391,0 0,-8.4668 0,-16.9336 0,-25.40039 -8.466797,0 -16.933594,0 -25.400391,0 0,4.23372 0,8.46744 0,12.70117 z"
         id="path1216" />
      <path
         style="fill:#868686;fill-opacity:1;stroke-width:0.264583"
         d="m 150.45703,160.50195 c 0,4.23308 0,8.46615 0,12.69922 8.4668,0 16.9336,0 25.40039,0 0,-8.46614 0,-16.93229 0,-25.39844 -8.46679,0 -16.93359,0 -25.40039,0 0,4.23308 0,8.46615 0,12.69922 z"
         id="path1214" />
      <path
         style="fill:#868686;fill-opacity:1;stroke-width:0.264583"
         d="m 18.166016,134.04297 c 0,4.23372 0,8.46745 0,12.70117 8.466145,0 16.932291,0 25.398437,0 0,-8.4668 0,-16.93359 0,-25.40039 -8.466146,0 -16.932292,0 -25.398437,0 0,4.23307 0,8.46615 0,12.69922 z"
         id="path1015" />
      <path
         style="fill:#848484;fill-opacity:1;stroke-width:0.264583"
         d="m 18.166016,107.58594 c 0,4.23307 0,8.46614 0,12.69922 8.466145,0 16.932291,0 25.398437,0 0,-8.4668 0,-16.9336 0,-25.400394 -8.466146,0 -16.932292,0 -25.398437,0 0,4.233724 0,8.467444 0,12.701174 z"
         id="path1013" />
      <path
         style="fill:#828282;fill-opacity:1;stroke-width:0.264583"
         d="m 150.45703,239.87695 c 0,4.23308 0,8.46615 0,12.69922 8.4668,0 16.9336,0 25.40039,0 0,-8.46614 0,-16.93229 0,-25.39844 -8.46679,0 -16.93359,0 -25.40039,0 0,4.23308 0,8.46615 0,12.69922 z"
         id="path1226" />
      <path
         style="fill:#828282;fill-opacity:1;stroke-width:0.264583"
         d="m 229.83203,134.04297 c 0,4.23372 0,8.46745 0,12.70117 8.4668,0 16.93359,0 25.40039,0 0,-8.4668 0,-16.93359 0,-25.40039 -8.4668,0 -16.93359,0 -25.40039,0 0,4.23307 0,8.46615 0,12.69922 z"
         id="path1011" />
      <path
         style="fill:#7f7f7f;fill-opacity:1;stroke-width:0.264583"
         d="m 123.99805,266.33594 c 0,4.23307 0,8.46614 0,12.69922 8.46679,0 16.93359,0 25.40039,0 0,-8.4668 0,-16.9336 0,-25.40039 -8.4668,0 -16.9336,0 -25.40039,0 0,4.23372 0,8.46744 0,12.70117 z"
         id="path1230" />
      <path
         style="fill:#7f7f7f;fill-opacity:1;stroke-width:0.264583"
         d="m 176.91602,160.50195 c 0,4.23308 0,8.46615 0,12.69922 8.46614,0 16.93229,0 25.39843,0 0,-8.46614 0,-16.93229 0,-25.39844 -8.46614,0 -16.93229,0 -25.39843,0 0,4.23308 0,8.46615 0,12.69922 z"
         id="path1009" />
      <path
         style="fill:#7d7d7d;fill-opacity:1;stroke-width:0.264583"
         d="m 97.541016,292.79297 c 0,4.23372 0,8.46745 0,12.70117 8.466144,0 16.932294,0 25.398434,0 0,-8.4668 0,-16.93359 0,-25.40039 -8.46614,0 -16.93229,0 -25.398434,0 0,4.23307 0,8.46615 0,12.69922 z"
         id="path1236" />
      <path
         style="fill:#7d7d7d;fill-opacity:1;stroke-width:0.264583"
         d="m 229.83203,107.58594 c 0,4.23307 0,8.46614 0,12.69922 8.4668,0 16.93359,0 25.40039,0 0,-8.4668 0,-16.9336 0,-25.400394 -8.4668,0 -16.93359,0 -25.40039,0 0,4.233724 0,8.467444 0,12.701174 z"
         id="path1234" />
      <path
         style="fill:#7d7d7d;fill-opacity:1;stroke-width:0.264583"
         d="m 176.91602,107.58594 c 0,4.23307 0,8.46614 0,12.69922 8.46614,0 16.93229,0 25.39843,0 0,-8.4668 0,-16.9336 0,-25.400394 -8.46614,0 -16.93229,0 -25.39843,0 0,4.233724 0,8.467444 0,12.701174 z"
         id="path1007" />
      <path
         style="fill:#7a7a7a;fill-opacity:1;stroke-width:0.264583"
         d="m 123.99805,292.79297 c 0,4.23372 0,8.46745 0,12.70117 8.46679,0 16.93359,0 25.40039,0 0,-8.4668 0,-16.93359 0,-25.40039 -8.4668,0 -16.9336,0 -25.40039,0 0,4.23307 0,8.46615 0,12.69922 z"
         id="path1242" />
      <path
         style="fill:#7a7a7a;fill-opacity:1;stroke-width:0.264583"
         d="m 18.166016,266.33594 c 0,4.23307 0,8.46614 0,12.69922 8.466145,0 16.932291,0 25.398437,0 0,-8.4668 0,-16.9336 0,-25.40039 -8.466146,0 -16.932292,0 -25.398437,0 0,4.23372 0,8.46744 0,12.70117 z"
         id="path1240" />
      <path
         style="fill:#7a7a7a;fill-opacity:1;stroke-width:0.264583"
         d="m 123.99805,186.96094 c 0,4.23307 0,8.46614 0,12.69922 8.46679,0 16.93359,0 25.40039,0 0,-8.4668 0,-16.9336 0,-25.40039 -8.4668,0 -16.9336,0 -25.40039,0 0,4.23372 0,8.46744 0,12.70117 z"
         id="path1005" />
      <path
         style="fill:#787878;fill-opacity:1;stroke-width:0.264583"
         d="m 18.166016,319.25195 c 0,4.23308 0,8.46615 0,12.69922 8.466145,0 16.932291,0 25.398437,0 0,-8.46614 0,-16.93229 0,-25.39844 -8.466146,0 -16.932292,0 -25.398437,0 0,4.23308 0,8.46615 0,12.69922 z"
         id="path1250" />
      <path
         style="fill:#787878;fill-opacity:1;stroke-width:0.264583"
         d="m 229.83203,266.33594 c 0,4.23307 0,8.46614 0,12.69922 8.4668,0 16.93359,0 25.40039,0 0,-8.4668 0,-16.9336 0,-25.40039 -8.4668,0 -16.93359,0 -25.40039,0 0,4.23372 0,8.46744 0,12.70117 z"
         id="path1248" />
      <path
         style="fill:#787878;fill-opacity:1;stroke-width:0.264583"
         d="m 18.166016,239.87695 c 0,4.23308 0,8.46615 0,12.69922 8.466145,0 16.932291,0 25.398437,0 0,-8.46614 0,-16.93229 0,-25.39844 -8.466146,0 -16.932292,0 -25.398437,0 0,4.23308 0,8.46615 0,12.69922 z"
         id="path1246" />
      <path
         style="fill:#787878;fill-opacity:1;stroke-width:0.264583"
         d="m 150.45703,186.96094 c 0,4.23307 0,8.46614 0,12.69922 8.4668,0 16.9336,0 25.40039,0 0,-8.4668 0,-16.9336 0,-25.40039 -8.46679,0 -16.93359,0 -25.40039,0 0,4.23372 0,8.46744 0,12.70117 z"
         id="path1003" />
      <path
         style="fill:#767676;fill-opacity:1;stroke-width:0.264583"
         d="m 150.45703,319.25195 v 12.69922 h 25.40039 v -25.39844 h -25.40039 z"
         id="path1001" />
      <path
         style="fill:#737373;fill-opacity:1;stroke-width:0.264583"
         d="m 44.623047,319.25195 c 0,4.23308 0,8.46615 0,12.69922 8.466797,0 16.933594,0 25.400391,0 -10e-7,-8.46614 0,-16.93229 0,-25.39844 -8.466797,0 -16.933594,0 -25.400391,0 0,4.23308 0,8.46615 0,12.69922 z"
         id="path1256" />
      <path
         style="fill:#737373;fill-opacity:1;stroke-width:0.264583"
         d="m 123.99805,160.50195 c 0,4.23308 0,8.46615 0,12.69922 8.46679,0 16.93359,0 25.40039,0 0,-8.46614 0,-16.93229 0,-25.39844 -8.4668,0 -16.9336,0 -25.40039,0 0,4.23308 0,8.46615 0,12.69922 z"
         id="path999" />
      <path
         style="fill:#6e6e6e;fill-opacity:1;stroke-width:0.264583"
         d="m 203.37305,292.79297 c 0,4.23372 0,8.46745 0,12.70117 8.46679,0 16.93359,0 25.40039,0 0,-8.4668 0,-16.93359 0,-25.40039 -8.4668,0 -16.9336,0 -25.40039,0 0,4.23307 0,8.46615 0,12.69922 z"
         id="path997" />
      <path
         style="fill:#6c6c6c;fill-opacity:1;stroke-width:0.264583"
         d="m 176.91602,319.25195 c 0,4.23308 0,8.46615 0,12.69922 8.46614,0 16.93229,0 25.39843,0 0,-8.46614 0,-16.93229 0,-25.39844 -8.46614,0 -16.93229,0 -25.39843,0 0,4.23308 0,8.46615 0,12.69922 z"
         id="path1264" />
      <path
         style="fill:#6c6c6c;fill-opacity:1;stroke-width:0.264583"
         d="m 44.623047,239.87695 c 0,4.23308 0,8.46615 0,12.69922 8.466797,0 16.933594,0 25.400391,0 -10e-7,-8.46614 0,-16.93229 0,-25.39844 -8.466797,0 -16.933594,0 -25.400391,0 0,4.23308 0,8.46615 0,12.69922 z"
         id="path1262" />
      <path
         style="fill:#6c6c6c;fill-opacity:1;stroke-width:0.264583"
         d="m 203.37305,160.50195 c 0,4.23308 0,8.46615 0,12.69922 8.46679,0 16.93359,0 25.40039,0 0,-8.46614 0,-16.93229 0,-25.39844 -8.4668,0 -16.9336,0 -25.40039,0 0,4.23308 0,8.46615 0,12.69922 z"
         id="path995" />
      <path
         style="fill:#6a6a6a;fill-opacity:1;stroke-width:0.264583"
         d="m 229.83203,239.87695 c 0,4.23308 0,8.46615 0,12.69922 8.4668,0 16.93359,0 25.40039,0 0,-8.46614 0,-16.93229 0,-25.39844 -8.4668,0 -16.93359,0 -25.40039,0 0,4.23308 0,8.46615 0,12.69922 z"
         id="path993" />
      <path
         style="fill:#676767;fill-opacity:1;stroke-width:0.264583"
         d="m 18.166016,292.79297 c 0,4.23372 0,8.46745 0,12.70117 8.466145,0 16.932291,0 25.398437,0 0,-8.4668 0,-16.93359 0,-25.40039 -8.466146,0 -16.932292,0 -25.398437,0 0,4.23307 0,8.46615 0,12.69922 z"
         id="path991" />
      <path
         style="fill:#656565;fill-opacity:1;stroke-width:0.264583"
         d="m 44.623047,186.96094 c 0,4.23307 0,8.46614 0,12.69922 8.466797,0 16.933594,0 25.400391,0 0,-8.4668 0,-16.9336 0,-25.40039 -8.466797,0 -16.933594,0 -25.400391,0 0,4.23372 0,8.46744 0,12.70117 z"
         id="path989" />
      <path
         style="fill:#626262;fill-opacity:1;stroke-width:0.264583"
         d="m 150.45703,266.33594 c 0,4.23307 0,8.46614 0,12.69922 8.4668,0 16.9336,0 25.40039,0 0,-8.4668 0,-16.9336 0,-25.40039 -8.46679,0 -16.93359,0 -25.40039,0 0,4.23372 0,8.46744 0,12.70117 z"
         id="path1274" />
      <path
         style="fill:#626262;fill-opacity:1;stroke-width:0.264583"
         d="m 44.623047,107.58594 c 0,4.23307 0,8.46614 0,12.69922 8.466797,0 16.933594,0 25.400391,0 -10e-7,-8.4668 0,-16.9336 0,-25.400394 -8.466797,0 -16.933594,0 -25.400391,0 0,4.233724 0,8.467444 0,12.701174 z"
         id="path987" />
      <path
         style="fill:#606060;fill-opacity:1;stroke-width:0.264583"
         d="m 229.83203,160.50195 c 0,4.23308 0,8.46615 0,12.69922 8.4668,0 16.93359,0 25.40039,0 0,-8.46614 0,-16.93229 0,-25.39844 -8.4668,0 -16.93359,0 -25.40039,0 0,4.23308 0,8.46615 0,12.69922 z"
         id="path985" />
      <path
         style="fill:#525252;fill-opacity:1;stroke-width:0.264583"
         d="m 203.37305,213.41797 c 0,4.23372 0,8.46745 0,12.70117 8.46679,0 16.93359,0 25.40039,0 0,-8.4668 0,-16.93359 0,-25.40039 -8.4668,0 -16.9336,0 -25.40039,0 0,4.23307 0,8.46615 0,12.69922 z"
         id="path983" />
      <path
         id="path1325"
         d="m 71.082031,292.79297 c 0,4.23372 0,8.46745 0,12.70117 8.46679,0 16.93359,0 25.40039,0 0,-8.4668 0,-16.93359 0,-25.40039 -8.4668,0 -16.9336,0 -25.40039,0 0,4.23307 0,8.46615 0,12.69922 z"
         style="fill:#525252;fill-opacity:1;stroke-width:0.264583" />
      <path
         id="path1336"
         d="m 71.082031,266.33399 c 0,4.23372 0,8.46745 0,12.70117 8.466797,0 16.933594,0 25.400391,0 0,-8.4668 0,-16.93359 0,-25.40039 -8.466797,0 -16.933594,0 -25.400391,0 0,4.23307 0,8.46615 0,12.69922 z"
         style="fill:#bbbbbb;fill-opacity:1;stroke-width:0.264583" />
      <path
         id="path1338"
         d="m 71.083011,239.87695 c 0,4.23308 0,8.46615 0,12.69922 8.46614,0 16.93229,0 25.39843,0 0,-8.46614 0,-16.93229 0,-25.39844 -8.46614,0 -16.93229,0 -25.39843,0 0,4.23308 0,8.46615 0,12.69922 z"
         style="fill:#7f7f7f;fill-opacity:1;stroke-width:0.264583" />
      <path
         id="path1340"
         d="m 71.082031,213.41894 v 12.69922 h 25.40039 v -25.39844 h -25.40039 z"
         style="fill:#a3a3a3;fill-opacity:1;stroke-width:0.264583" />
      <path
         id="path1342"
         d="m 176.91602,292.79394 v 12.69923 h 25.39843 v -25.39844 h -25.39843 z"
         style="fill:#a3a3a3;fill-opacity:1;stroke-width:0.264583" />
      <path
         id="path1344"
         d="m 176.91504,266.33594 c 0,4.23307 0,8.46614 0,12.69922 8.4668,0 16.9336,0 25.40039,0 0,-8.4668 0,-16.9336 0,-25.40039 -8.46679,0 -16.93359,0 -25.40039,0 0,4.23372 0,8.46744 0,12.70117 z"
         style="fill:#787878;fill-opacity:1;stroke-width:0.264583" />
      <path
         id="path1346"
         d="m 97.540036,134.04492 c 0,4.23307 0,8.46614 0,12.69922 8.466804,0 16.933604,0 25.400394,0 0,-8.4668 0,-16.9336 0,-25.40039 -8.46679,0 -16.93359,0 -25.400394,0 0,4.23372 0,8.46744 0,12.70117 z"
         style="fill:#787878;fill-opacity:1;stroke-width:0.264583" />
      <path
         id="path1348"
         d="m 123.99903,134.04394 v 12.69923 h 25.39843 v -25.39844 h -25.39843 z"
         style="fill:#999999;fill-opacity:1;stroke-width:0.264583" />
      <path
         style="fill:#525252;fill-opacity:1;stroke-width:0.264583"
         d="m 97.540036,213.41797 c 0,4.23372 0,8.46745 0,12.70117 8.466794,0 16.933594,0 25.400394,0 0,-8.4668 0,-16.93359 0,-25.40039 -8.4668,0 -16.9336,0 -25.400394,0 0,4.23307 0,8.46615 0,12.69922 z"
         id="path1352" />
      <path
         id="path1354"
         d="m 176.91504,213.41992 c 0,4.23307 0,8.46614 0,12.69922 8.4668,0 16.9336,0 25.40039,0 0,-8.4668 0,-16.9336 0,-25.40039 -8.46679,0 -16.93359,0 -25.40039,0 0,4.23372 0,8.46744 0,12.70117 z"
         style="fill:#787878;fill-opacity:1;stroke-width:0.264583" />
    </g>
    <text
       xml:space="preserve"
       style="font-style:normal;font-weight:normal;font-size:503.746px;line-height:1.25;font-family:sans-serif;letter-spacing:0px;word-spacing:0px;fill:#ffffff;fill-opacity:1;stroke:none;stroke-width:0.380808;filter:url(#filter1552)"
       x="-235.31145"
       y="503.07935"
       id="text1360"><tspan
         sodipodi:role="line"
         id="tspan1358"
         x="-235.31145"
         y="503.07935"
         style="font-style:normal;font-variant:normal;font-weight:normal;font-stretch:normal;font-size:503.746px;font-family:'AR PL New Sung Mono';-inkscape-font-specification:'AR PL New Sung Mono, Normal';font-variant-ligatures:normal;font-variant-caps:normal;font-variant-numeric:normal;font-variant-east-asian:normal;fill:#ffffff;fill-opacity:1;stroke-width:0.380808">~</tspan></text>
    <text
       id="text930"
       y="337.5238"
       x="70.253716"
       style="font-style:normal;font-weight:normal;font-size:150px;line-height:1.25;font-family:sans-serif;letter-spacing:0px;word-spacing:0px;fill:#000000;fill-opacity:1;stroke:none;stroke-width:0.264583"
       xml:space="preserve"><tspan
         style="font-style:normal;font-variant:normal;font-weight:normal;font-stretch:normal;font-size:150px;font-family:'Linux Biolinum';-inkscape-font-specification:'Linux Biolinum';stroke-width:0.264583"
         y="337.5238"
         x="70.253716"
         id="tspan928"
         sodipodi:role="line">Formulaic</tspan></text>
  </g>
</svg>
