<?xml version="1.0" encoding="UTF-8" standalone="no"?>
<svg
   width="911.11713"
   height="911.11713"
   viewBox="0 0 241.0664 241.06641"
   version="1.1"
   id="svg8"
   inkscape:version="1.1 (c4e8f9ed74, 2021-05-24)"
   sodipodi:docname="logo.svg"
   inkscape:export-filename="/home/matthew/Repositories/formulaic/logo.png"
   inkscape:export-xdpi="53.94696"
   inkscape:export-ydpi="53.94696"
   xmlns:inkscape="http://www.inkscape.org/namespaces/inkscape"
   xmlns:sodipodi="http://sodipodi.sourceforge.net/DTD/sodipodi-0.dtd"
   xmlns="http://www.w3.org/2000/svg"
   xmlns:svg="http://www.w3.org/2000/svg"
   xmlns:rdf="http://www.w3.org/1999/02/22-rdf-syntax-ns#"
   xmlns:cc="http://creativecommons.org/ns#"
   xmlns:dc="http://purl.org/dc/elements/1.1/">
  <defs
     id="defs2">
    <filter
       style="color-interpolation-filters:sRGB"
       inkscape:label="Drop Shadow"
       id="filter1552"
       x="-0.058967304"
       y="-0.1691186"
       width="1.1179346"
       height="1.3382372">
      <feFlood
         flood-opacity="1"
         flood-color="rgb(255,255,255)"
         result="flood"
         id="feFlood1542" />
      <feComposite
         in="SourceGraphic"
         in2="flood"
         operator="in"
         result="composite1"
         id="feComposite1544" />
      <feGaussianBlur
         in="composite1"
         stdDeviation="4.8877717813027868"
         result="blur"
         id="feGaussianBlur1546" />
      <feOffset
         dx="0"
         dy="0"
         result="offset"
         id="feOffset1548" />
      <feComposite
         in="SourceGraphic"
         in2="offset"
         operator="over"
         result="composite2"
         id="feComposite1550" />
    </filter>
    <filter
       id="filter1182"
       inkscape:label="Colorize"
       style="color-interpolation-filters:sRGB"
       x="0"
       y="0"
       width="1"
       height="1">
      <feComposite
         id="feComposite1168"
         result="composite1"
         k2="1"
         k1="0"
         operator="arithmetic"
         in2="SourceGraphic"
         k3="0"
         k4="0" />
      <feColorMatrix
         id="feColorMatrix1170"
         result="colormatrix1"
         type="saturate"
         values="1"
         in="composite1" />
      <feFlood
         id="feFlood1172"
         result="flood1"
         flood-color="rgb(26,101,227)"
         flood-opacity="1" />
      <feBlend
         id="feBlend1174"
         result="blend1"
         mode="multiply"
         in2="colormatrix1"
         in="flood1" />
      <feBlend
         id="feBlend1176"
         result="blend2"
         mode="screen"
         in2="blend1" />
      <feColorMatrix
         id="feColorMatrix1178"
         result="colormatrix2"
         type="saturate"
         values="1"
         in="blend2" />
      <feComposite
         id="feComposite1180"
         result="composite2"
         operator="in"
         in2="SourceGraphic"
         in="colormatrix2" />
    </filter>
  </defs>
  <sodipodi:namedview
     id="base"
     pagecolor="#ffffff"
     bordercolor="#666666"
     borderopacity="1.0"
     inkscape:pageopacity="0.0"
     inkscape:pageshadow="2"
     inkscape:zoom="0.49497476"
     inkscape:cx="829.33522"
     inkscape:cy="468.71077"
     inkscape:document-units="mm"
     inkscape:current-layer="layer1"
     inkscape:document-rotation="0"
     showgrid="false"
     inkscape:window-width="1920"
     inkscape:window-height="1003"
     inkscape:window-x="0"
     inkscape:window-y="40"
     inkscape:window-maximized="1"
     fit-margin-top="2"
     fit-margin-left="2"
     fit-margin-right="2"
     fit-margin-bottom="2"
     inkscape:pagecheckerboard="0"
     units="px"
     width="911.11713px" />
  <metadata
     id="metadata5">
    <rdf:RDF>
      <cc:Work
         rdf:about="">
        <dc:format>image/svg+xml</dc:format>
        <dc:type
           rdf:resource="http://purl.org/dc/dcmitype/StillImage" />
      </cc:Work>
    </rdf:RDF>
  </metadata>
  <g
     inkscape:label="Layer 1"
     inkscape:groupmode="layer"
     id="layer1"
     transform="translate(230.0038,-165.35487)">
    <path
       id="text930-3"
       style="font-style:normal;font-weight:normal;font-size:150px;line-height:1.25;font-family:sans-serif;letter-spacing:0px;word-spacing:0px;fill:#ffffff;fill-opacity:1;stroke:none;stroke-width:0.264583"
       d="m 500.99414,231.19141 c -2.29439,0.74749 -4.5581,1.66158 -6.94177,2.13042 -2.27954,0.51628 -4.60481,0.80941 -6.93714,0.94379 -0.77428,0.91298 -1.20547,2.17411 -0.79098,3.33901 0.96987,7.40651 0.99805,14.98704 1.09762,22.51057 0.0887,16.32327 0.0257,32.64694 0.0321,48.97033 -0.0545,9.10797 -0.15791,18.22669 -1.17717,27.27828 -0.10848,0.79681 -0.32176,1.70977 0.31306,2.35103 0.46496,0.70334 1.38211,1.10487 2.18341,0.75102 4.24387,-0.49102 8.5104,-0.47164 12.72412,0.0162 0.6186,0.14131 1.40341,0.23265 1.76127,-0.41528 0.66541,-0.66148 1.01001,-1.65016 0.66995,-2.55266 -1.50282,-12.72593 -1.20859,-25.57231 -1.27033,-38.3755 0.003,-12.8373 -0.0475,-25.67544 0.0508,-38.51219 0.16106,-8.60069 0.83717,-17.16002 1.31359,-25.7435 -0.12561,-1.49461 -1.48967,-2.82308 -3.02847,-2.69157 z m -417.259765,7.70117 c -0.777905,0.79702 -1.120994,1.96859 -0.797649,3.04862 1.735155,14.78926 1.230912,29.71462 1.327886,44.58653 -0.02732,11.25579 0.101346,22.51463 -0.192428,33.76777 -0.171116,5.80295 -0.506882,11.57611 -1.3007,17.33927 0.103482,1.0002 0.884827,2.23966 2.042969,1.93164 4.737396,-0.32598 9.576907,-0.71816 14.238281,-0.13282 0.556458,0.0665 1.108716,0.16049 1.662106,0.24805 0.75592,-0.87545 1.476,-2.05741 1.02917,-3.24383 -1.73024,-13.80415 -1.34075,-27.74161 -1.4129,-41.63351 3.1e-4,-1.07214 6.1e-4,-2.14427 9.2e-4,-3.21641 10.85658,0.0422 21.67545,0.46582 32.47461,1.51563 0.76882,-0.67977 1.84926,-1.64181 1.33594,-2.78321 -0.51028,-2.96558 -0.39462,-6.0121 0.10156,-8.96484 -0.11481,-1.31194 -1.53286,-2.2394 -2.79025,-1.89365 -10.35613,0.79961 -20.72928,1.34277 -31.12186,1.38388 0.0555,-9.58262 -0.20516,-19.19496 0.74019,-28.7243 0.17409,-0.41284 -0.10981,-1.40083 0.49731,-1.33959 13.40795,0.0131 26.77886,0.66736 40.12774,1.83733 0.61363,-1.00452 1.24447,-2.20141 0.85005,-3.40425 -0.32857,-2.95658 -0.0521,-5.88929 0.14799,-8.83598 -0.40629,-0.94098 -1.36752,-2.02406 -2.5,-1.58008 -6.94576,0.64876 -13.98041,0.28405 -20.96875,0.38402 -10.26074,-0.0319 -20.523635,0.0821 -30.782912,-0.0883 -1.516914,-0.0598 -3.02555,-0.24145 -4.523726,-0.48123 -0.06185,0.0931 -0.123698,0.1862 -0.185547,0.2793 z m 521.009765,-0.14063 c -5.13462,0.19132 -9.57588,5.33097 -8.71544,10.4602 0.63464,4.74343 5.38886,8.62651 10.19502,7.94412 4.88042,-0.60724 8.89017,-5.53922 8.10616,-10.46985 -0.69673,-4.46485 -5.03517,-8.16446 -9.58574,-7.93447 z m -240.62305,31.35547 c -7.18451,0.23008 -14.20142,2.93305 -19.83456,7.36896 -1.23619,0.94339 -2.41497,1.96105 -3.5463,3.02753 -1.99303,-5.4092 -7.22802,-9.25985 -12.86432,-10.09613 -6.58097,-1.12292 -13.36083,0.83398 -18.95604,4.30259 -3.25036,1.97299 -6.20416,4.40073 -8.93159,7.04158 -0.0403,-3.03723 0.12113,-6.09119 -0.13672,-9.11718 -0.33311,-1.36253 -1.87913,-2.35024 -3.23928,-1.83917 -3.95439,0.67907 -8.01177,0.61132 -12.0322,0.25713 -0.69193,0.84918 -1.42304,1.96205 -0.97581,3.09532 1.08445,8.42371 1.07912,16.96845 1.17174,25.48472 0.0476,10.26297 0.12532,20.57312 -0.56805,30.78775 -0.18091,2.50103 -0.43903,4.96293 -0.78218,7.45057 0.41902,0.9484 1.36909,2.08346 2.5293,1.625 4.27771,-0.54701 8.62447,-0.48785 12.88015,-0.0165 0.48712,-0.0542 1.20419,0.4634 1.50852,-0.048 0.69613,-0.80869 1.2396,-1.92741 0.8426,-2.99589 -1.56955,-13.41281 -1.10375,-26.94939 -1.19612,-40.43809 0,-0.97513 0,-1.95026 0,-2.92539 4.6474,-4.53682 10.05443,-8.58295 16.35743,-10.4375 2.87825,-0.71518 6.36696,-0.46947 8.48397,1.83955 2.19536,2.49371 2.49218,6.03509 2.59233,9.17365 0.0219,3.59521 -0.0188,7.19077 0.003,10.7864 -0.009,10.71861 0.015,21.48459 -1.26998,32.10023 -0.27652,0.92083 -0.0879,1.97226 0.69822,2.58684 0.52358,0.56684 1.33599,0.52792 2.00729,0.32319 4.24801,-0.47233 8.50656,-0.44429 12.72514,0.0534 0.49408,-0.0332 1.21672,0.47102 1.45679,-0.16324 0.62649,-0.76748 1.15473,-1.79739 0.77536,-2.79542 -1.57809,-12.53457 -1.21007,-25.24976 -1.27157,-37.89134 -0.01,-2.79201 0.001,-5.61463 -0.12464,-8.38633 3.31447,-3.58209 7.60256,-6.38237 12.407,-7.44766 2.66381,-0.56435 5.41144,-0.71064 8.11324,-0.30973 2.31872,0.37601 4.7726,1.42729 5.86696,3.6422 1.47509,2.79807 1.40992,6.02003 1.46687,9.07768 -0.0411,10.09642 0.13619,20.19955 -0.30275,30.28971 -0.18275,3.94699 -0.50691,7.91538 -0.99468,11.84936 -0.0757,1.26697 1.13258,2.5165 2.43057,2.15682 1.91247,-0.33636 4.01148,-0.35572 6.01278,-0.40563 2.5803,-0.038 5.16342,0.14331 7.71876,0.46756 0.83756,-0.0411 1.29215,-0.88799 1.60365,-1.55588 0.31919,-0.95367 -0.17921,-1.92361 -0.17585,-2.8945 -1.33876,-11.66096 -1.05369,-23.48695 -1.10599,-35.2418 0.0146,-6.62301 0.0967,-13.47772 -2.38449,-19.73547 -1.08285,-2.73501 -2.70143,-5.38719 -5.23825,-6.99359 -4.01156,-2.677 -9.02606,-3.13003 -13.72056,-3.05337 z m -181.11914,-0.008 c -7.72279,0.093 -15.59887,2.55109 -21.42336,7.74865 -6.29772,5.49029 -10.09392,13.49326 -11.11675,21.72307 -0.96586,6.96011 -0.64267,14.24934 1.89635,20.85968 2.94853,7.61353 8.8447,14.17529 16.42246,17.36696 6.06011,2.61961 12.84316,3.17892 19.36055,2.52082 6.13299,-0.6576 12.20205,-2.87601 16.91187,-6.93431 6.07085,-5.08012 9.8691,-12.55487 11.05967,-20.3282 1.00743,-6.30368 0.75379,-12.80669 -0.64982,-19.02953 -1.6819,-7.16289 -5.6276,-13.95757 -11.67146,-18.28435 -5.14609,-3.74508 -11.54131,-5.36859 -17.83107,-5.60344 -0.98537,-0.0463 -1.97218,-0.0491 -2.95844,-0.0394 z m 81.61524,0.006 c -4.62785,0.0738 -9.14867,2.28727 -12.06006,5.8809 -1.90626,2.11369 -3.54714,4.44981 -5.08252,6.84175 -0.0283,-3.39876 0.0927,-6.80967 -0.10749,-10.20042 -0.29791,-1.45548 -1.99388,-2.36414 -3.37135,-1.80379 -3.90361,0.6368 -7.96818,0.58679 -11.92936,0.22882 -0.69202,0.84942 -1.42493,1.96435 -0.97416,3.09731 1.13986,8.98834 1.09359,18.10028 1.17914,27.18197 0.0276,10.23638 0.11305,20.51895 -0.71257,30.70533 -0.1612,1.95082 -0.39653,3.89452 -0.64671,5.83571 0.41989,0.94349 1.36079,2.0699 2.51758,1.62695 4.28084,-0.5457 8.63152,-0.49814 12.88997,-0.0188 0.48544,-0.0568 1.19927,0.45685 1.50456,-0.0476 0.74419,-0.82655 1.2328,-1.98564 0.84563,-3.08555 -1.29485,-11.41305 -1.22673,-22.97552 -1.15813,-34.48129 0.2076,-4.33967 1.91648,-8.43673 4.15956,-12.07392 1.27422,-2.02097 2.71258,-4.17398 5.03597,-5.07655 1.90832,-0.8499 4.04814,-0.5176 6.04729,-0.27207 1.37094,0.20914 2.66442,0.79666 3.72788,1.68079 0.86479,0.45505 1.82462,-0.0661 2.67188,-0.30078 1.01337,-0.54552 0.85269,-1.85581 1.23882,-2.78271 0.91661,-3.40118 1.83223,-6.80261 2.74946,-10.20362 -0.79239,-0.9437 -1.77498,-1.88427 -3.0729,-1.96661 -1.77777,-0.46772 -3.60355,-0.85185 -5.45249,-0.76581 z m 396.72461,-0.006 c -7.7766,0.10468 -15.35569,3.32173 -21.13567,8.47105 -5.42744,4.68508 -9.42561,11.10998 -10.78085,18.18681 -1.3529,6.56349 -0.96348,13.4045 0.51037,19.91149 1.83281,7.47511 6.09182,14.55341 12.56711,18.87631 6.30449,4.26234 14.22826,5.64617 21.71023,4.79991 5.6897,-0.63306 11.21714,-2.94997 15.47818,-6.80374 1.78571,-1.56611 3.35043,-3.36442 4.81078,-5.23285 -1.40729,-1.55101 -2.81431,-3.10228 -4.22265,-4.65234 -1.09529,-0.15411 -2.38323,-0.0186 -3.09163,0.93413 -3.27154,2.82121 -7.32696,4.65195 -11.65973,5.19088 -3.53988,0.44022 -7.37988,-0.0145 -10.48302,-1.96485 -4.57832,-2.79857 -7.40387,-7.76155 -8.77058,-12.83438 -0.99576,-3.63808 -1.28301,-7.27267 -1.30793,-11.03007 -0.002,-6.23741 1.18845,-12.75652 4.9241,-17.89589 2.55291,-3.59219 6.50193,-6.48198 11.01616,-6.7417 2.92691,-0.24876 5.95772,0.67687 8.21749,2.46539 2.85132,2.08249 4.85401,5.06135 6.68238,8.02361 0.85542,0.9812 2.20983,0.31995 3.30088,0.38608 0.72467,0.0522 1.37848,-0.51487 1.34389,-1.2524 1.23202,-4.31375 2.46685,-8.62671 3.69713,-12.94096 -0.85828,-1.73367 -2.87575,-2.24217 -4.47812,-2.94419 -5.80617,-2.30065 -12.12158,-3.00772 -18.32852,-2.95229 z m -115.66602,0.0195 c -8.03782,0.34269 -15.73199,3.91983 -21.71875,9.19727 -0.55818,0.54421 -1.04513,1.25311 -0.83789,2.07031 0.91085,3.70725 1.83642,7.41937 2.75391,11.1289 1.35622,0.0981 2.71226,0.19886 4.06836,0.29883 2.80878,-4.47541 6.00602,-9.04692 10.78361,-11.58914 2.71255,-1.44188 5.96102,-1.46344 8.90832,-0.86961 1.64631,0.44724 3.27699,1.1128 4.66549,2.20289 1.60284,1.33869 2.35322,3.39311 3.00628,5.31461 0.77385,2.68328 1.19562,5.48524 1.09001,8.26171 -10e-4,0.53234 -0.80321,0.37256 -1.1771,0.53168 -6.07554,1.47121 -12.25671,2.5446 -18.24536,4.38029 -6.4441,2.11442 -12.72437,5.56484 -16.89063,11.04882 -2.72184,3.66597 -3.97685,8.35637 -3.47851,12.89258 0.342,4.44756 2.28677,8.97256 6.0147,11.59951 4.47346,3.29152 10.2273,4.15406 15.65623,3.96638 4.70529,-0.11539 9.47878,-1.28497 13.39095,-3.98255 1.86479,-1.18627 3.63029,-2.52168 5.3346,-3.92709 1.54226,3.73335 4.92473,6.66953 8.90117,7.494 3.80678,0.88147 7.8684,0.40423 11.48555,-1.00962 2.27917,-0.96502 4.30662,-2.4796 5.94531,-4.32813 -0.6512,-2.08108 -1.3042,-4.16161 -1.95703,-6.24219 -2.51011,1.09203 -5.49318,1.8892 -8.12161,0.74825 -1.36529,-1.03188 -1.47089,-2.91624 -1.8121,-4.45937 -0.69363,-4.6403 -0.29021,-9.419 -0.2784,-14.13316 0.0938,-5.72173 0.343,-11.44518 0.24333,-17.16743 -0.28188,-5.74299 -1.8536,-11.69716 -5.77145,-16.0625 -3.857,-4.31068 -9.58417,-6.47179 -15.22929,-7.08852 -2.23146,-0.26992 -4.48348,-0.33661 -6.7297,-0.27672 z m 65.20117,0.85742 c -4.54015,0.40087 -9.14556,0.40949 -13.68945,0.0937 -0.76406,0.8374 -1.40224,2.01443 -0.98064,3.16183 1.21648,10.22565 1.12824,20.58173 1.1882,30.89714 0.0179,10.9347 -0.005,21.89133 -1.36576,32.75158 0.41849,0.94211 1.3581,2.06106 2.51172,1.61914 4.28412,-0.54669 8.64027,-0.49882 12.90165,-0.0186 0.57446,0.0302 1.28084,0.42949 1.60106,-0.25213 0.68117,-0.65674 1.20658,-1.64896 0.8416,-2.59822 -1.57423,-13.24821 -1.30344,-26.62284 -1.25057,-39.95162 0.10912,-7.66576 0.63098,-15.28465 1.35743,-22.9158 0.0468,-1.30605 -0.87339,-2.77709 -2.30067,-2.75028 -0.27015,-0.0381 -0.54237,-0.0408 -0.81457,-0.0368 z m -162.73437,0.26367 c -0.69302,0.80683 -1.23631,1.92312 -0.83632,2.98803 1.6225,13.25446 1.19078,26.64176 1.26796,39.98072 -0.25784,0.94177 -1.01728,1.64732 -1.50384,2.47775 -3.07226,4.26027 -6.87802,8.08819 -11.45447,10.71596 -3.17197,1.69804 -7.2542,2.38961 -10.52607,0.57192 -1.76877,-1.0375 -2.88412,-2.9345 -3.19884,-4.93252 -0.87693,-3.65826 -0.76209,-7.45611 -0.74762,-11.27997 0.0255,-10.89776 -0.19706,-21.83856 0.68087,-32.68791 0.14486,-2.01039 0.40587,-3.99615 0.62497,-6.00976 -0.0316,-0.84996 -0.73639,-1.65148 -1.5293,-1.93554 -0.76333,-0.16705 -1.50889,0.22768 -2.28485,0.20045 -3.89816,0.35007 -7.84535,0.307 -11.72584,-0.17173 -0.64394,-0.26167 -1.36883,-0.0384 -1.71001,0.57479 -0.77211,0.92159 -0.53458,2.16535 -0.36075,3.24287 1.46463,13.2001 1.01562,26.58117 1.11046,39.87666 -0.0589,4.15946 -0.008,8.41283 1.37416,12.38697 1.50051,4.60051 4.47708,8.97585 8.94124,11.11026 3.89066,1.88493 8.32497,2.43192 12.60464,2.15393 4.69047,-0.39513 9.08985,-2.50257 12.73153,-5.41726 2.79128,-2.14486 5.29342,-4.66255 7.44833,-7.44523 0.20143,3.49709 0.34379,7.00335 0.64258,10.49024 0.36245,1.34671 2.0171,1.6211 3.1875,1.30273 4.10127,-0.50038 8.22125,-0.36429 12.26757,0.23243 0.59878,-0.87032 1.47246,-1.90751 0.96878,-3.02814 -1.97216,-10.62347 -2.56954,-21.46877 -2.42672,-32.29804 0.029,-10.06341 0.0468,-20.17898 1.26202,-30.14976 0.26016,-0.90382 0.14342,-1.93827 -0.61072,-2.5768 -0.50197,-0.56547 -1.31344,-0.65371 -1.98793,-0.40063 -4.48491,0.49752 -8.9831,0.47368 -13.43251,-0.13181 -0.30053,-2.6e-4 -0.64021,-0.2443 -0.77682,0.15939 z m -265.22852,8.03321 c 3.57589,0.0155 7.40864,0.61187 10.35702,2.85598 3.05988,2.26121 4.41003,6.01312 5.36373,9.54981 1.45386,5.70948 1.73874,11.61225 1.69953,17.49445 -0.10376,4.34713 -0.8567,8.81451 -2.76391,12.7403 -0.96021,2.01712 -2.06296,3.72111 -3.57779,5.35288 -2.06326,2.23885 -4.8755,3.84141 -7.93936,4.11086 -4.4757,0.50717 -9.18234,-1.07687 -12.29467,-4.3688 -3.00247,-3.09183 -5.26461,-6.95713 -6.18434,-11.18896 -1.4005,-6.2335 -1.55601,-12.71434 -0.78521,-19.05238 0.4937,-4.09913 1.59732,-8.26645 4.18046,-11.57168 2.31357,-3.13951 5.8699,-5.4525 9.80547,-5.79376 0.70938,-0.0904 1.42456,-0.11658 2.13907,-0.1287 z m 374.78906,42.30468 c 0.12225,1.59713 -1.30749,2.66141 -2.51894,3.39954 -3.62276,2.5923 -7.82245,4.92912 -12.41293,4.78623 -3.24289,-0.0251 -6.56214,-1.63744 -8.13786,-4.55336 -1.21545,-2.13885 -0.83855,-4.75763 -0.18222,-7.01326 0.79328,-2.56148 2.59083,-4.7352 4.88616,-6.10165 4.17486,-2.63802 9.12318,-3.51669 13.79559,-4.86745 1.69527,-0.45757 3.39055,-0.91513 5.08583,-1.3727 -0.17188,5.24088 -0.34375,10.48177 -0.51563,15.72265 z" />
    <rect
       style="fill:#ffffff;fill-opacity:1;stroke-width:0.0700041;stroke-opacity:0.437451"
       id="rect130"
       width="241.06641"
       height="241.06641"
       x="-230.0038"
       y="165.35487" />
    <g
       style="filter:url(#filter1182)"
       id="g981"
       transform="translate(-246.16982,72.470094)">
      <path
         style="fill:#bbbbbb;fill-opacity:1;stroke-width:0.264583"
         d="m 71.082031,134.04297 c 0,4.23372 0,8.46745 0,12.70117 8.466797,0 16.933594,0 25.400391,0 0,-8.4668 0,-16.93359 0,-25.40039 -8.466797,0 -16.933594,0 -25.400391,0 0,4.23307 0,8.46615 0,12.69922 z"
         id="path1049" />
      <path
         style="fill:#b1b1b1;fill-opacity:1;stroke-width:0.264583"
         d="m 71.082031,319.25195 c 0,4.23308 0,8.46615 0,12.69922 8.466797,0 16.933594,0 25.400391,0 0,-8.46614 0,-16.93229 0,-25.39844 -8.466797,0 -16.933594,0 -25.400391,0 0,4.23308 0,8.46615 0,12.69922 z"
         id="path1047" />
      <path
         style="fill:#adadad;fill-opacity:1;stroke-width:0.264583"
         d="m 150.45703,134.04297 c 0,4.23372 0,8.46745 0,12.70117 8.4668,0 16.9336,0 25.40039,0 0,-8.4668 0,-16.93359 0,-25.40039 -8.46679,0 -16.93359,0 -25.40039,0 0,4.23307 0,8.46615 0,12.69922 z"
         id="path1045" />
      <path
         style="fill:#a8a8a8;fill-opacity:1;stroke-width:0.264583"
         d="m 203.37305,266.33594 v 12.69922 h 25.40039 v -25.40039 h -25.40039 z"
         id="path1043" />
      <path
         style="fill:#a5a5a5;fill-opacity:1;stroke-width:0.264583"
         d="m 18.166016,186.96094 c 0,4.23307 0,8.46614 0,12.69922 8.466145,0 16.932291,0 25.398437,0 0,-8.4668 0,-16.9336 0,-25.40039 -8.466146,0 -16.932292,0 -25.398437,0 0,4.23372 0,8.46744 0,12.70117 z"
         id="path1146" />
      <path
         style="fill:#a5a5a5;fill-opacity:1;stroke-width:0.264583"
         d="m 71.082031,160.50195 c 0,4.23308 0,8.46615 0,12.69922 8.466797,0 16.933594,0 25.400391,0 0,-8.46614 0,-16.93229 0,-25.39844 -8.466797,0 -16.933594,0 -25.400391,0 0,4.23308 0,8.46615 0,12.69922 z"
         id="path1041" />
      <path
         style="fill:#a3a3a3;fill-opacity:1;stroke-width:0.264583"
         d="m 203.37305,239.87695 v 12.69922 h 25.40039 v -25.39844 h -25.40039 z"
         id="path1150" />
      <path
         style="fill:#a3a3a3;fill-opacity:1;stroke-width:0.264583"
         d="m 18.166016,160.50195 v 12.69922 H 43.564453 V 147.80273 H 18.166016 Z"
         id="path1039" />
      <path
         style="fill:#a1a1a1;fill-opacity:1;stroke-width:0.264583"
         d="m 176.91602,239.87695 c 0,4.23308 0,8.46615 0,12.69922 8.46614,0 16.93229,0 25.39843,0 0,-8.46614 0,-16.93229 0,-25.39844 -8.46614,0 -16.93229,0 -25.39843,0 0,4.23308 0,8.46615 0,12.69922 z"
         id="path1156" />
      <path
         style="fill:#a1a1a1;fill-opacity:1;stroke-width:0.264583"
         d="m 44.623047,213.41797 c 0,4.23372 0,8.46745 0,12.70117 8.466797,0 16.933594,0 25.400391,0 -10e-7,-8.4668 -10e-7,-16.93359 0,-25.40039 -8.466797,0 -16.933594,0 -25.400391,0 0,4.23307 0,8.46615 0,12.69922 z"
         id="path1154" />
      <path
         style="fill:#a1a1a1;fill-opacity:1;stroke-width:0.264583"
         d="m 97.541016,186.96094 c 0,4.23307 0,8.46614 0,12.69922 8.466144,0 16.932294,0 25.398434,0 0,-8.4668 0,-16.9336 0,-25.40039 -8.46614,0 -16.93229,0 -25.398434,0 0,4.23372 0,8.46744 0,12.70117 z"
         id="path1037" />
      <path
         style="fill:#9e9e9e;fill-opacity:1;stroke-width:0.264583"
         d="m 97.541016,239.87695 c 0,4.23308 0,8.46615 0,12.69922 8.466144,0 16.932294,0 25.398434,0 0,-8.46614 0,-16.93229 0,-25.39844 -8.46614,0 -16.93229,0 -25.398434,0 0,4.23308 0,8.46615 0,12.69922 z"
         id="path1160" />
      <path
         style="fill:#9e9e9e;fill-opacity:1;stroke-width:0.264583"
         d="m 150.45703,107.58594 c 0,4.23307 0,8.46614 0,12.69922 8.4668,0 16.9336,0 25.40039,0 0,-8.4668 0,-16.9336 0,-25.400394 -8.46679,0 -16.93359,0 -25.40039,0 0,4.233724 0,8.467444 0,12.701174 z"
         id="path1035" />
      <path
         style="fill:#9c9c9c;fill-opacity:1;stroke-width:0.264583"
         d="m 123.99805,239.87695 c 0,4.23308 0,8.46615 0,12.69922 8.46679,0 16.93359,0 25.40039,0 0,-8.46614 0,-16.93229 0,-25.39844 -8.4668,0 -16.9336,0 -25.40039,0 0,4.23308 0,8.46615 0,12.69922 z"
         id="path1164" />
      <path
         style="fill:#9c9c9c;fill-opacity:1;stroke-width:0.264583"
         d="m 97.541016,160.50195 c 0,4.23308 0,8.46615 0,12.69922 8.466144,0 16.932294,0 25.398434,0 0,-8.46614 0,-16.93229 0,-25.39844 -8.46614,0 -16.93229,0 -25.398434,0 0,4.23308 0,8.46615 0,12.69922 z"
         id="path1033" />
      <path
         style="fill:#999999;fill-opacity:1;stroke-width:0.264583"
         d="m 97.541016,319.25195 v 12.69922 H 122.93945 V 306.55273 H 97.541016 Z"
         id="path1168" />
      <path
         style="fill:#999999;fill-opacity:1;stroke-width:0.264583"
         d="m 229.83203,292.79297 v 12.70117 h 25.40039 v -25.40039 h -25.40039 z"
         id="path1031" />
      <path
         style="fill:#979797;fill-opacity:1;stroke-width:0.264583"
         d="m 150.45703,292.79297 c 0,4.23372 0,8.46745 0,12.70117 8.4668,0 16.9336,0 25.40039,0 0,-8.4668 0,-16.93359 0,-25.40039 -8.46679,0 -16.93359,0 -25.40039,0 0,4.23307 0,8.46615 0,12.69922 z"
         id="path1176" />
      <path
         style="fill:#979797;fill-opacity:1;stroke-width:0.264583"
         d="m 150.45703,213.41797 c 0,4.23372 0,8.46745 0,12.70117 8.4668,0 16.9336,0 25.40039,0 0,-8.4668 0,-16.93359 0,-25.40039 -8.46679,0 -16.93359,0 -25.40039,0 0,4.23307 0,8.46615 0,12.69922 z"
         id="path1174" />
      <path
         style="fill:#979797;fill-opacity:1;stroke-width:0.264583"
         d="m 229.83203,186.96094 c 0,4.23307 0,8.46614 0,12.69922 8.4668,0 16.93359,0 25.40039,0 0,-8.4668 0,-16.9336 0,-25.40039 -8.4668,0 -16.93359,0 -25.40039,0 0,4.23372 0,8.46744 0,12.70117 z"
         id="path1172" />
      <path
         style="fill:#979797;fill-opacity:1;stroke-width:0.264583"
         d="m 44.623047,160.50195 c 0,4.23308 0,8.46615 0,12.69922 8.466797,0 16.933594,0 25.400391,0 -10e-7,-8.46614 0,-16.93229 0,-25.39844 -8.466797,0 -16.933594,0 -25.400391,0 0,4.23308 0,8.46615 0,12.69922 z"
         id="path1029" />
      <path
         style="fill:#959595;fill-opacity:1;stroke-width:0.264583"
         d="m 203.37305,319.25195 c 0,4.23308 0,8.46615 0,12.69922 8.46679,0 16.93359,0 25.40039,0 0,-8.46614 0,-16.93229 0,-25.39844 -8.4668,0 -16.9336,0 -25.40039,0 0,4.23308 0,8.46615 0,12.69922 z"
         id="path1027" />
      <path
         style="fill:#929292;fill-opacity:1;stroke-width:0.264583"
         d="m 229.83203,319.25195 c 0,4.23308 0,8.46615 0,12.69922 8.4668,0 16.93359,0 25.40039,0 0,-8.46614 0,-16.93229 0,-25.39844 -8.4668,0 -16.93359,0 -25.40039,0 0,4.23308 0,8.46615 0,12.69922 z"
         id="path1186" />
      <path
         style="fill:#929292;fill-opacity:1;stroke-width:0.264583"
         d="m 44.623047,292.79297 c 0,4.23372 0,8.46745 0,12.70117 8.466797,0 16.933594,0 25.400391,0 0,-8.4668 -10e-7,-16.93359 0,-25.40039 -8.466797,0 -16.933594,0 -25.400391,0 0,4.23307 0,8.46615 0,12.69922 z"
         id="path1184" />
      <path
         style="fill:#929292;fill-opacity:1;stroke-width:0.264583"
         d="m 18.166016,213.41797 c 0,4.23372 0,8.46745 0,12.70117 8.466145,0 16.932291,0 25.398437,0 0,-8.4668 0,-16.93359 0,-25.40039 -8.466146,0 -16.932292,0 -25.398437,0 0,4.23307 0,8.46615 0,12.69922 z"
         id="path1182" />
      <path
         style="fill:#929292;fill-opacity:1;stroke-width:0.264583"
         d="m 203.37305,107.58594 c 0,4.23307 0,8.46614 0,12.69922 8.46679,0 16.93359,0 25.40039,0 0,-8.4668 0,-16.9336 0,-25.400394 -8.4668,0 -16.9336,0 -25.40039,0 0,4.233724 0,8.467444 0,12.701174 z"
         id="path1025" />
      <path
         style="fill:#909090;fill-opacity:1;stroke-width:0.264583"
         d="m 176.91602,186.96094 c 0,4.23307 0,8.46614 0,12.69922 8.46614,0 16.93229,0 25.39843,0 0,-8.4668 0,-16.9336 0,-25.40039 -8.46614,0 -16.93229,0 -25.39843,0 0,4.23372 0,8.46744 0,12.70117 z"
         id="path1192" />
      <path
         style="fill:#909090;fill-opacity:1;stroke-width:0.264583"
         d="m 203.37305,134.04297 c 0,4.23372 0,8.46745 0,12.70117 8.46679,0 16.93359,0 25.40039,0 0,-8.4668 0,-16.93359 0,-25.40039 -8.4668,0 -16.9336,0 -25.40039,0 0,4.23307 0,8.46615 0,12.69922 z"
         id="path1190" />
      <path
         style="fill:#909090;fill-opacity:1;stroke-width:0.264583"
         d="m 123.99805,107.58594 c 0,4.23307 0,8.46614 0,12.69922 8.46679,0 16.93359,0 25.40039,0 0,-8.4668 0,-16.9336 0,-25.400394 -8.4668,0 -16.9336,0 -25.40039,0 0,4.233724 0,8.467444 0,12.701174 z"
         id="path1023" />
      <path
         style="fill:#8d8d8d;fill-opacity:1;stroke-width:0.264583"
         d="m 97.541016,266.33594 c 0,4.23307 0,8.46614 0,12.69922 8.466144,0 16.932294,0 25.398434,0 0,-8.4668 0,-16.9336 0,-25.40039 -8.46614,0 -16.93229,0 -25.398434,0 0,4.23372 0,8.46744 0,12.70117 z"
         id="path1134" />
      <path
         style="fill:#8d8d8d;fill-opacity:1;stroke-width:0.264583"
         d="m 123.99805,213.41797 c 0,4.23372 0,8.46745 0,12.70117 8.46679,0 16.93359,0 25.40039,0 0,-8.4668 0,-16.93359 0,-25.40039 -8.4668,0 -16.9336,0 -25.40039,0 0,4.23307 0,8.46615 0,12.69922 z"
         id="path1132" />
      <path
         style="fill:#8d8d8d;fill-opacity:1;stroke-width:0.264583"
         d="m 71.082031,107.58594 c 0,4.23307 0,8.46614 0,12.69922 8.466797,0 16.933594,0 25.400391,0 0,-8.4668 0,-16.9336 0,-25.400394 -8.466797,0 -16.933594,0 -25.400391,0 0,4.233724 0,8.467444 0,12.701174 z"
         id="path1021" />
      <path
         style="fill:#8b8b8b;fill-opacity:1;stroke-width:0.264583"
         d="m 123.99805,319.25195 c 0,4.23308 0,8.46615 0,12.69922 8.46679,0 16.93359,0 25.40039,0 0,-8.46614 0,-16.93229 0,-25.39844 -8.4668,0 -16.9336,0 -25.40039,0 0,4.23308 0,8.46615 0,12.69922 z"
         id="path1208" />
      <path
         style="fill:#8b8b8b;fill-opacity:1;stroke-width:0.264583"
         d="m 176.91602,134.04297 c 0,4.23372 0,8.46745 0,12.70117 8.46614,0 16.93229,0 25.39843,0 0,-8.4668 0,-16.93359 0,-25.40039 -8.46614,0 -16.93229,0 -25.39843,0 0,4.23307 0,8.46615 0,12.69922 z"
         id="path1204" />
      <path
         style="fill:#8b8b8b;fill-opacity:1;stroke-width:0.264583"
         d="m 44.623047,134.04297 c 0,4.23372 0,8.46745 0,12.70117 8.466797,0 16.933594,0 25.400391,0 -10e-7,-8.4668 0,-16.93359 0,-25.40039 -8.466797,0 -16.933594,0 -25.400391,0 0,4.23307 0,8.46615 0,12.69922 z"
         id="path1202" />
      <path
         style="fill:#8b8b8b;fill-opacity:1;stroke-width:0.264583"
         d="m 97.541016,107.58594 c 0,4.23307 0,8.46614 0,12.69922 8.466144,0 16.932294,0 25.398434,0 0,-8.4668 0,-16.9336 0,-25.400394 -8.46614,0 -16.93229,0 -25.398434,0 0,4.233724 0,8.467444 0,12.701174 z"
         id="path1019" />
      <path
         style="fill:#898989;fill-opacity:1;stroke-width:0.264583"
         d="m 203.37305,186.96094 c 0,4.23307 0,8.46614 0,12.69922 8.46679,0 16.93359,0 25.40039,0 0,-8.4668 0,-16.9336 0,-25.40039 -8.4668,0 -16.9336,0 -25.40039,0 0,4.23372 0,8.46744 0,12.70117 z"
         id="path1017" />
      <path
         style="fill:#868686;fill-opacity:1;stroke-width:0.264583"
         d="m 44.623047,266.33594 c 0,4.23307 0,8.46614 0,12.69922 8.466797,0 16.933594,0 25.400391,0 -10e-7,-8.4668 0,-16.9336 0,-25.40039 -8.466797,0 -16.933594,0 -25.400391,0 0,4.23372 0,8.46744 0,12.70117 z"
         id="path1220" />
      <path
         style="fill:#868686;fill-opacity:1;stroke-width:0.264583"
         d="m 229.83203,213.41797 c 0,4.23372 0,8.46745 0,12.70117 8.4668,0 16.93359,0 25.40039,0 0,-8.4668 0,-16.93359 0,-25.40039 -8.4668,0 -16.93359,0 -25.40039,0 0,4.23307 0,8.46615 0,12.69922 z"
         id="path1218" />
      <path
         style="fill:#868686;fill-opacity:1;stroke-width:0.264583"
         d="m 71.082031,186.96094 c 0,4.23307 0,8.46614 0,12.69922 8.466797,0 16.933594,0 25.400391,0 0,-8.4668 0,-16.9336 0,-25.40039 -8.466797,0 -16.933594,0 -25.400391,0 0,4.23372 0,8.46744 0,12.70117 z"
         id="path1216" />
      <path
         style="fill:#868686;fill-opacity:1;stroke-width:0.264583"
         d="m 150.45703,160.50195 c 0,4.23308 0,8.46615 0,12.69922 8.4668,0 16.9336,0 25.40039,0 0,-8.46614 0,-16.93229 0,-25.39844 -8.46679,0 -16.93359,0 -25.40039,0 0,4.23308 0,8.46615 0,12.69922 z"
         id="path1214" />
      <path
         style="fill:#868686;fill-opacity:1;stroke-width:0.264583"
         d="m 18.166016,134.04297 c 0,4.23372 0,8.46745 0,12.70117 8.466145,0 16.932291,0 25.398437,0 0,-8.4668 0,-16.93359 0,-25.40039 -8.466146,0 -16.932292,0 -25.398437,0 0,4.23307 0,8.46615 0,12.69922 z"
         id="path1015" />
      <path
         style="fill:#848484;fill-opacity:1;stroke-width:0.264583"
         d="m 18.166016,107.58594 c 0,4.23307 0,8.46614 0,12.69922 8.466145,0 16.932291,0 25.398437,0 0,-8.4668 0,-16.9336 0,-25.400394 -8.466146,0 -16.932292,0 -25.398437,0 0,4.233724 0,8.467444 0,12.701174 z"
         id="path1013" />
      <path
         style="fill:#828282;fill-opacity:1;stroke-width:0.264583"
         d="m 150.45703,239.87695 c 0,4.23308 0,8.46615 0,12.69922 8.4668,0 16.9336,0 25.40039,0 0,-8.46614 0,-16.93229 0,-25.39844 -8.46679,0 -16.93359,0 -25.40039,0 0,4.23308 0,8.46615 0,12.69922 z"
         id="path1226" />
      <path
         style="fill:#828282;fill-opacity:1;stroke-width:0.264583"
         d="m 229.83203,134.04297 c 0,4.23372 0,8.46745 0,12.70117 8.4668,0 16.93359,0 25.40039,0 0,-8.4668 0,-16.93359 0,-25.40039 -8.4668,0 -16.93359,0 -25.40039,0 0,4.23307 0,8.46615 0,12.69922 z"
         id="path1011" />
      <path
         style="fill:#7f7f7f;fill-opacity:1;stroke-width:0.264583"
         d="m 123.99805,266.33594 c 0,4.23307 0,8.46614 0,12.69922 8.46679,0 16.93359,0 25.40039,0 0,-8.4668 0,-16.9336 0,-25.40039 -8.4668,0 -16.9336,0 -25.40039,0 0,4.23372 0,8.46744 0,12.70117 z"
         id="path1230" />
      <path
         style="fill:#7f7f7f;fill-opacity:1;stroke-width:0.264583"
         d="m 176.91602,160.50195 c 0,4.23308 0,8.46615 0,12.69922 8.46614,0 16.93229,0 25.39843,0 0,-8.46614 0,-16.93229 0,-25.39844 -8.46614,0 -16.93229,0 -25.39843,0 0,4.23308 0,8.46615 0,12.69922 z"
         id="path1009" />
      <path
         style="fill:#7d7d7d;fill-opacity:1;stroke-width:0.264583"
         d="m 97.541016,292.79297 c 0,4.23372 0,8.46745 0,12.70117 8.466144,0 16.932294,0 25.398434,0 0,-8.4668 0,-16.93359 0,-25.40039 -8.46614,0 -16.93229,0 -25.398434,0 0,4.23307 0,8.46615 0,12.69922 z"
         id="path1236" />
      <path
         style="fill:#7d7d7d;fill-opacity:1;stroke-width:0.264583"
         d="m 229.83203,107.58594 c 0,4.23307 0,8.46614 0,12.69922 8.4668,0 16.93359,0 25.40039,0 0,-8.4668 0,-16.9336 0,-25.400394 -8.4668,0 -16.93359,0 -25.40039,0 0,4.233724 0,8.467444 0,12.701174 z"
         id="path1234" />
      <path
         style="fill:#7d7d7d;fill-opacity:1;stroke-width:0.264583"
         d="m 176.91602,107.58594 c 0,4.23307 0,8.46614 0,12.69922 8.46614,0 16.93229,0 25.39843,0 0,-8.4668 0,-16.9336 0,-25.400394 -8.46614,0 -16.93229,0 -25.39843,0 0,4.233724 0,8.467444 0,12.701174 z"
         id="path1007" />
      <path
         style="fill:#7a7a7a;fill-opacity:1;stroke-width:0.264583"
         d="m 123.99805,292.79297 c 0,4.23372 0,8.46745 0,12.70117 8.46679,0 16.93359,0 25.40039,0 0,-8.4668 0,-16.93359 0,-25.40039 -8.4668,0 -16.9336,0 -25.40039,0 0,4.23307 0,8.46615 0,12.69922 z"
         id="path1242" />
      <path
         style="fill:#7a7a7a;fill-opacity:1;stroke-width:0.264583"
         d="m 18.166016,266.33594 c 0,4.23307 0,8.46614 0,12.69922 8.466145,0 16.932291,0 25.398437,0 0,-8.4668 0,-16.9336 0,-25.40039 -8.466146,0 -16.932292,0 -25.398437,0 0,4.23372 0,8.46744 0,12.70117 z"
         id="path1240" />
      <path
         style="fill:#7a7a7a;fill-opacity:1;stroke-width:0.264583"
         d="m 123.99805,186.96094 c 0,4.23307 0,8.46614 0,12.69922 8.46679,0 16.93359,0 25.40039,0 0,-8.4668 0,-16.9336 0,-25.40039 -8.4668,0 -16.9336,0 -25.40039,0 0,4.23372 0,8.46744 0,12.70117 z"
         id="path1005" />
      <path
         style="fill:#787878;fill-opacity:1;stroke-width:0.264583"
         d="m 18.166016,319.25195 c 0,4.23308 0,8.46615 0,12.69922 8.466145,0 16.932291,0 25.398437,0 0,-8.46614 0,-16.93229 0,-25.39844 -8.466146,0 -16.932292,0 -25.398437,0 0,4.23308 0,8.46615 0,12.69922 z"
         id="path1250" />
      <path
         style="fill:#787878;fill-opacity:1;stroke-width:0.264583"
         d="m 229.83203,266.33594 c 0,4.23307 0,8.46614 0,12.69922 8.4668,0 16.93359,0 25.40039,0 0,-8.4668 0,-16.9336 0,-25.40039 -8.4668,0 -16.93359,0 -25.40039,0 0,4.23372 0,8.46744 0,12.70117 z"
         id="path1248" />
      <path
         style="fill:#787878;fill-opacity:1;stroke-width:0.264583"
         d="m 18.166016,239.87695 c 0,4.23308 0,8.46615 0,12.69922 8.466145,0 16.932291,0 25.398437,0 0,-8.46614 0,-16.93229 0,-25.39844 -8.466146,0 -16.932292,0 -25.398437,0 0,4.23308 0,8.46615 0,12.69922 z"
         id="path1246" />
      <path
         style="fill:#787878;fill-opacity:1;stroke-width:0.264583"
         d="m 150.45703,186.96094 c 0,4.23307 0,8.46614 0,12.69922 8.4668,0 16.9336,0 25.40039,0 0,-8.4668 0,-16.9336 0,-25.40039 -8.46679,0 -16.93359,0 -25.40039,0 0,4.23372 0,8.46744 0,12.70117 z"
         id="path1003" />
      <path
         style="fill:#767676;fill-opacity:1;stroke-width:0.264583"
         d="m 150.45703,319.25195 v 12.69922 h 25.40039 v -25.39844 h -25.40039 z"
         id="path1001" />
      <path
         style="fill:#737373;fill-opacity:1;stroke-width:0.264583"
         d="m 44.623047,319.25195 c 0,4.23308 0,8.46615 0,12.69922 8.466797,0 16.933594,0 25.400391,0 -10e-7,-8.46614 0,-16.93229 0,-25.39844 -8.466797,0 -16.933594,0 -25.400391,0 0,4.23308 0,8.46615 0,12.69922 z"
         id="path1256" />
      <path
         style="fill:#737373;fill-opacity:1;stroke-width:0.264583"
         d="m 123.99805,160.50195 c 0,4.23308 0,8.46615 0,12.69922 8.46679,0 16.93359,0 25.40039,0 0,-8.46614 0,-16.93229 0,-25.39844 -8.4668,0 -16.9336,0 -25.40039,0 0,4.23308 0,8.46615 0,12.69922 z"
         id="path999" />
      <path
         style="fill:#6e6e6e;fill-opacity:1;stroke-width:0.264583"
         d="m 203.37305,292.79297 c 0,4.23372 0,8.46745 0,12.70117 8.46679,0 16.93359,0 25.40039,0 0,-8.4668 0,-16.93359 0,-25.40039 -8.4668,0 -16.9336,0 -25.40039,0 0,4.23307 0,8.46615 0,12.69922 z"
         id="path997" />
      <path
         style="fill:#6c6c6c;fill-opacity:1;stroke-width:0.264583"
         d="m 176.91602,319.25195 c 0,4.23308 0,8.46615 0,12.69922 8.46614,0 16.93229,0 25.39843,0 0,-8.46614 0,-16.93229 0,-25.39844 -8.46614,0 -16.93229,0 -25.39843,0 0,4.23308 0,8.46615 0,12.69922 z"
         id="path1264" />
      <path
         style="fill:#6c6c6c;fill-opacity:1;stroke-width:0.264583"
         d="m 44.623047,239.87695 c 0,4.23308 0,8.46615 0,12.69922 8.466797,0 16.933594,0 25.400391,0 -10e-7,-8.46614 0,-16.93229 0,-25.39844 -8.466797,0 -16.933594,0 -25.400391,0 0,4.23308 0,8.46615 0,12.69922 z"
         id="path1262" />
      <path
         style="fill:#6c6c6c;fill-opacity:1;stroke-width:0.264583"
         d="m 203.37305,160.50195 c 0,4.23308 0,8.46615 0,12.69922 8.46679,0 16.93359,0 25.40039,0 0,-8.46614 0,-16.93229 0,-25.39844 -8.4668,0 -16.9336,0 -25.40039,0 0,4.23308 0,8.46615 0,12.69922 z"
         id="path995" />
      <path
         style="fill:#6a6a6a;fill-opacity:1;stroke-width:0.264583"
         d="m 229.83203,239.87695 c 0,4.23308 0,8.46615 0,12.69922 8.4668,0 16.93359,0 25.40039,0 0,-8.46614 0,-16.93229 0,-25.39844 -8.4668,0 -16.93359,0 -25.40039,0 0,4.23308 0,8.46615 0,12.69922 z"
         id="path993" />
      <path
         style="fill:#676767;fill-opacity:1;stroke-width:0.264583"
         d="m 18.166016,292.79297 c 0,4.23372 0,8.46745 0,12.70117 8.466145,0 16.932291,0 25.398437,0 0,-8.4668 0,-16.93359 0,-25.40039 -8.466146,0 -16.932292,0 -25.398437,0 0,4.23307 0,8.46615 0,12.69922 z"
         id="path991" />
      <path
         style="fill:#656565;fill-opacity:1;stroke-width:0.264583"
         d="m 44.623047,186.96094 c 0,4.23307 0,8.46614 0,12.69922 8.466797,0 16.933594,0 25.400391,0 0,-8.4668 0,-16.9336 0,-25.40039 -8.466797,0 -16.933594,0 -25.400391,0 0,4.23372 0,8.46744 0,12.70117 z"
         id="path989" />
      <path
         style="fill:#626262;fill-opacity:1;stroke-width:0.264583"
         d="m 150.45703,266.33594 c 0,4.23307 0,8.46614 0,12.69922 8.4668,0 16.9336,0 25.40039,0 0,-8.4668 0,-16.9336 0,-25.40039 -8.46679,0 -16.93359,0 -25.40039,0 0,4.23372 0,8.46744 0,12.70117 z"
         id="path1274" />
      <path
         style="fill:#626262;fill-opacity:1;stroke-width:0.264583"
         d="m 44.623047,107.58594 c 0,4.23307 0,8.46614 0,12.69922 8.466797,0 16.933594,0 25.400391,0 -10e-7,-8.4668 0,-16.9336 0,-25.400394 -8.466797,0 -16.933594,0 -25.400391,0 0,4.233724 0,8.467444 0,12.701174 z"
         id="path987" />
      <path
         style="fill:#606060;fill-opacity:1;stroke-width:0.264583"
         d="m 229.83203,160.50195 c 0,4.23308 0,8.46615 0,12.69922 8.4668,0 16.93359,0 25.40039,0 0,-8.46614 0,-16.93229 0,-25.39844 -8.4668,0 -16.93359,0 -25.40039,0 0,4.23308 0,8.46615 0,12.69922 z"
         id="path985" />
      <path
         style="fill:#525252;fill-opacity:1;stroke-width:0.264583"
         d="m 203.37305,213.41797 c 0,4.23372 0,8.46745 0,12.70117 8.46679,0 16.93359,0 25.40039,0 0,-8.4668 0,-16.93359 0,-25.40039 -8.4668,0 -16.9336,0 -25.40039,0 0,4.23307 0,8.46615 0,12.69922 z"
         id="path983" />
      <path
         id="path1325"
         d="m 71.082031,292.79297 c 0,4.23372 0,8.46745 0,12.70117 8.46679,0 16.93359,0 25.40039,0 0,-8.4668 0,-16.93359 0,-25.40039 -8.4668,0 -16.9336,0 -25.40039,0 0,4.23307 0,8.46615 0,12.69922 z"
         style="fill:#525252;fill-opacity:1;stroke-width:0.264583" />
      <path
         id="path1336"
         d="m 71.082031,266.33399 c 0,4.23372 0,8.46745 0,12.70117 8.466797,0 16.933594,0 25.400391,0 0,-8.4668 0,-16.93359 0,-25.40039 -8.466797,0 -16.933594,0 -25.400391,0 0,4.23307 0,8.46615 0,12.69922 z"
         style="fill:#bbbbbb;fill-opacity:1;stroke-width:0.264583" />
      <path
         id="path1338"
         d="m 71.083011,239.87695 c 0,4.23308 0,8.46615 0,12.69922 8.46614,0 16.93229,0 25.39843,0 0,-8.46614 0,-16.93229 0,-25.39844 -8.46614,0 -16.93229,0 -25.39843,0 0,4.23308 0,8.46615 0,12.69922 z"
         style="fill:#7f7f7f;fill-opacity:1;stroke-width:0.264583" />
      <path
         id="path1340"
         d="m 71.082031,213.41894 v 12.69922 h 25.40039 v -25.39844 h -25.40039 z"
         style="fill:#a3a3a3;fill-opacity:1;stroke-width:0.264583" />
      <path
         id="path1342"
         d="m 176.91602,292.79394 v 12.69923 h 25.39843 v -25.39844 h -25.39843 z"
         style="fill:#a3a3a3;fill-opacity:1;stroke-width:0.264583" />
      <path
         id="path1344"
         d="m 176.91504,266.33594 c 0,4.23307 0,8.46614 0,12.69922 8.4668,0 16.9336,0 25.40039,0 0,-8.4668 0,-16.9336 0,-25.40039 -8.46679,0 -16.93359,0 -25.40039,0 0,4.23372 0,8.46744 0,12.70117 z"
         style="fill:#787878;fill-opacity:1;stroke-width:0.264583" />
      <path
         id="path1346"
         d="m 97.540036,134.04492 c 0,4.23307 0,8.46614 0,12.69922 8.466804,0 16.933604,0 25.400394,0 0,-8.4668 0,-16.9336 0,-25.40039 -8.46679,0 -16.93359,0 -25.400394,0 0,4.23372 0,8.46744 0,12.70117 z"
         style="fill:#787878;fill-opacity:1;stroke-width:0.264583" />
      <path
         id="path1348"
         d="m 123.99903,134.04394 v 12.69923 h 25.39843 v -25.39844 h -25.39843 z"
         style="fill:#999999;fill-opacity:1;stroke-width:0.264583" />
      <path
         style="fill:#525252;fill-opacity:1;stroke-width:0.264583"
         d="m 97.540036,213.41797 c 0,4.23372 0,8.46745 0,12.70117 8.466794,0 16.933594,0 25.400394,0 0,-8.4668 0,-16.93359 0,-25.40039 -8.4668,0 -16.9336,0 -25.400394,0 0,4.23307 0,8.46615 0,12.69922 z"
         id="path1352" />
      <path
         id="path1354"
         d="m 176.91504,213.41992 c 0,4.23307 0,8.46614 0,12.69922 8.4668,0 16.9336,0 25.40039,0 0,-8.4668 0,-16.9336 0,-25.40039 -8.46679,0 -16.93359,0 -25.40039,0 0,4.23372 0,8.46744 0,12.70117 z"
         style="fill:#787878;fill-opacity:1;stroke-width:0.264583" />
    </g>
    <text
       xml:space="preserve"
       style="font-style:normal;font-weight:normal;font-size:503.746px;line-height:1.25;font-family:sans-serif;letter-spacing:0px;word-spacing:0px;fill:#ffffff;fill-opacity:1;stroke:none;stroke-width:0.380808;filter:url(#filter1552)"
       x="-235.31145"
       y="503.07935"
       id="text1360"><tspan
         sodipodi:role="line"
         id="tspan1358"
         x="-235.31145"
         y="503.07935"
         style="font-style:normal;font-variant:normal;font-weight:normal;font-stretch:normal;font-size:503.746px;font-family:'AR PL New Sung Mono';-inkscape-font-specification:'AR PL New Sung Mono, Normal';font-variant-ligatures:normal;font-variant-caps:normal;font-variant-numeric:normal;font-variant-east-asian:normal;fill:#ffffff;fill-opacity:1;stroke-width:0.380808">~</tspan></text>
    <text
       id="text930"
       y="337.5238"
       x="70.253716"
       style="font-style:normal;font-weight:normal;font-size:150px;line-height:1.25;font-family:sans-serif;letter-spacing:0px;word-spacing:0px;fill:#000000;fill-opacity:1;stroke:none;stroke-width:0.264583"
       xml:space="preserve"><tspan
         style="font-style:normal;font-variant:normal;font-weight:normal;font-stretch:normal;font-size:150px;font-family:'Linux Biolinum';-inkscape-font-specification:'Linux Biolinum';stroke-width:0.264583"
         y="337.5238"
         x="70.253716"
         id="tspan928"
         sodipodi:role="line">Formulaic</tspan></text>
  </g>
</svg>
